<svg xmlns="http://www.w3.org/2000/svg" viewBox="0 0 32 32" id="Tropical-Fish--Streamline-Twemoji" height="32" width="32">
  <desc>
    Tropical Fish Streamline Emoji: https://streamlinehq.com
  </desc>
  <path fill="#ffac33" d="M7.316444444444444 8.88888888888889c5.333333333333333 -7.111111111111111 12.444444444444443 -8.88888888888889 16 -8.88888888888889 0.8888888888888888 0 0.8888888888888888 0.8888888888888888 0 0.8888888888888888s-5.333333333333333 1.7777777777777777 -6.222222222222221 8 -9.777777777777777 0 -9.777777777777777 0zm-0.8888888888888888 16c3.5555555555555554 2.6666666666666665 11.555555555555555 7.111111111111111 16 7.111111111111111 2.6666666666666665 0 1.7777777777777777 -0.8888888888888888 0.8888888888888888 -0.8888888888888888s-8 -2.6666666666666665 -8.88888888888889 -6.222222222222221 -8 0 -8 0z" stroke-width="0.8889"></path>
  <path fill="#ffcc4d" d="M31.11111111111111 8c-1.432 0 -3.608 2.6417777777777776 -4.682666666666666 5.594666666666666 -1.3111111111111111 -4.995555555555556 -5.480888888888889 -9.545777777777777 -11.506666666666666 -9.545777777777777 -7.353777777777777 0 -10.720888888888888 9.080888888888888 -12.91022222222222 12.870222222222221 -0.5591111111111111 0.9697777777777777 -3.6364444444444444 0.9191111111111111 -0.8791111111111111 2.7582222222222224 -2.7582222222222224 1.8382222222222222 0.3991111111111111 1.9937777777777776 1.0862222222222222 2.7582222222222224 2.333333333333333 2.5955555555555554 7.997333333333333 5.515555555555555 12.703111111111111 5.515555555555555 5.026666666666666 0 9.884444444444442 -3.365333333333333 11.433777777777777 -7.962666666666666C27.402666666666665 23.018666666666665 29.647111111111112 25.777777777777775 31.11111111111111 25.777777777777775c1.9635555555555555 0 -1.7777777777777777 -4.961777777777777 -1.7777777777777777 -8.88888888888889s3.741333333333333 -8.88888888888889 1.7777777777777777 -8.88888888888889z" stroke-width="0.8889"></path>
  <g fill="#f4900c">
    <path d="M16.000888888888888 15.970666666666665c-0.016888888888888887 0.4906666666666667 0.36799999999999994 0.902222222222222 0.8586666666666666 0.9173333333333333l0.030222222222222223 0.0008888888888888888c0.47644444444444445 0 0.8711111111111111 -0.37866666666666665 0.8871111111111111 -0.8595555555555555 0.17866666666666667 -5.391111111111111 5.118222222222222 -7.836444444444445 5.644444444444444 -8.081777777777777 -0.4142222222222222 -0.4666666666666667 -0.8604444444444443 -0.9048888888888889 -1.3422222222222222 -1.304 -1.6755555555555555 0.9395555555555555 -5.896888888888889 3.8426666666666667 -6.078222222222222 9.32711111111111zm4.460444444444444 -1.9226666666666663c-0.09599999999999999 0.4817777777777778 0.21599999999999997 0.9493333333333334 0.6968888888888889 1.0462222222222222 0.059555555555555556 0.011555555555555555 0.11733333333333333 0.016888888888888887 0.176 0.016888888888888887 0.4151111111111111 0 0.7866666666666666 -0.29244444444444445 0.8711111111111111 -0.7146666666666667 0.45866666666666667 -2.294222222222222 2.0408888888888885 -3.1768888888888887 3.1928888888888887 -3.5164444444444443 -0.2711111111111111 -0.5413333333333333 -0.5733333333333334 -1.0684444444444443 -0.9137777777777778 -1.5715555555555554 -1.6684444444444444 0.6142222222222221 -3.4737777777777774 1.9964444444444442 -4.023111111111111 4.7395555555555555z" stroke-width="0.8889"></path>
    <path d="M11.555555555555555 17.77777777777778c0 0.4915555555555556 0.3982222222222222 0.8888888888888888 0.8888888888888888 0.8888888888888888s0.8888888888888888 -0.3973333333333333 0.8888888888888888 -0.8888888888888888c0 -7.973333333333334 5.192 -11.150222222222222 7.347555555555555 -12.125333333333332 -0.6159999999999999 -0.3724444444444444 -1.2657777777777777 -0.6977777777777777 -1.96 -0.9484444444444443C15.900444444444446 6.372444444444444 11.555555555555555 10.174222222222221 11.555555555555555 17.77777777777778z" stroke-width="0.8889"></path>
  </g>
  <path fill="#292f33" d="M7.111111111111111 13.777777777777777a1.3333333333333333 1.3333333333333333 0 1 0 2.6666666666666665 0 1.3333333333333333 1.3333333333333333 0 1 0 -2.6666666666666665 0" stroke-width="0.8889"></path>
</svg>